<mxfile host="app.diagrams.net" modified="2022-05-05T18:07:58.849Z" agent="5.0 (Windows NT 10.0; Win64; x64) AppleWebKit/537.36 (KHTML, like Gecko) Chrome/100.0.4896.127 Safari/537.36" etag="Zp5Yd10QkxNW4Lm7IkAf" version="17.5.0" type="github">
  <diagram id="C5RBs43oDa-KdzZeNtuy" name="Page-1">
    <mxGraphModel dx="2425" dy="1893" grid="1" gridSize="10" guides="1" tooltips="1" connect="1" arrows="1" fold="1" page="1" pageScale="1" pageWidth="827" pageHeight="1169" math="0" shadow="0">
      <root>
        <mxCell id="WIyWlLk6GJQsqaUBKTNV-0" />
        <mxCell id="WIyWlLk6GJQsqaUBKTNV-1" parent="WIyWlLk6GJQsqaUBKTNV-0" />
        <mxCell id="w26-jd_fZ5yCgCjcOmdc-0" value="&lt;p style=&quot;margin: 0px ; margin-top: 4px ; text-align: center&quot;&gt;&lt;i&gt;&amp;lt;&amp;lt;Interface&amp;gt;&amp;gt;&lt;/i&gt;&lt;br&gt;&lt;b&gt;CanvasInterface&lt;/b&gt;&lt;/p&gt;&lt;hr size=&quot;1&quot;&gt;&lt;p style=&quot;margin: 0px ; margin-left: 4px&quot;&gt;+ MoveTo(int x, inx y);&lt;br&gt;+ LineTo(int x, int y);&lt;/p&gt;" style="verticalAlign=top;align=left;overflow=fill;fontSize=12;fontFamily=Helvetica;html=1;" parent="WIyWlLk6GJQsqaUBKTNV-1" vertex="1">
          <mxGeometry x="150" y="70" width="190" height="90" as="geometry" />
        </mxCell>
        <mxCell id="w26-jd_fZ5yCgCjcOmdc-5" style="edgeStyle=orthogonalEdgeStyle;rounded=0;orthogonalLoop=1;jettySize=auto;html=1;entryX=0.467;entryY=1.016;entryDx=0;entryDy=0;entryPerimeter=0;dashed=1;endArrow=block;endFill=0;" parent="WIyWlLk6GJQsqaUBKTNV-1" source="w26-jd_fZ5yCgCjcOmdc-1" target="w26-jd_fZ5yCgCjcOmdc-0" edge="1">
          <mxGeometry relative="1" as="geometry" />
        </mxCell>
        <mxCell id="w26-jd_fZ5yCgCjcOmdc-1" value="Canvas" style="swimlane;fontStyle=1;align=center;verticalAlign=top;childLayout=stackLayout;horizontal=1;startSize=26;horizontalStack=0;resizeParent=1;resizeParentMax=0;resizeLast=0;collapsible=1;marginBottom=0;" parent="WIyWlLk6GJQsqaUBKTNV-1" vertex="1">
          <mxGeometry x="160" y="260" width="160" height="100" as="geometry" />
        </mxCell>
        <mxCell id="w26-jd_fZ5yCgCjcOmdc-2" value="+ field: type" style="text;strokeColor=none;fillColor=none;align=left;verticalAlign=top;spacingLeft=4;spacingRight=4;overflow=hidden;rotatable=0;points=[[0,0.5],[1,0.5]];portConstraint=eastwest;" parent="w26-jd_fZ5yCgCjcOmdc-1" vertex="1">
          <mxGeometry y="26" width="160" height="26" as="geometry" />
        </mxCell>
        <mxCell id="w26-jd_fZ5yCgCjcOmdc-3" value="" style="line;strokeWidth=1;fillColor=none;align=left;verticalAlign=middle;spacingTop=-1;spacingLeft=3;spacingRight=3;rotatable=0;labelPosition=right;points=[];portConstraint=eastwest;" parent="w26-jd_fZ5yCgCjcOmdc-1" vertex="1">
          <mxGeometry y="52" width="160" height="8" as="geometry" />
        </mxCell>
        <mxCell id="w26-jd_fZ5yCgCjcOmdc-4" value="+ MoveTo(int x, inx y);&#xa;+ LineTo(int x, int y);" style="text;strokeColor=none;fillColor=none;align=left;verticalAlign=top;spacingLeft=4;spacingRight=4;overflow=hidden;rotatable=0;points=[[0,0.5],[1,0.5]];portConstraint=eastwest;" parent="w26-jd_fZ5yCgCjcOmdc-1" vertex="1">
          <mxGeometry y="60" width="160" height="40" as="geometry" />
        </mxCell>
        <mxCell id="w26-jd_fZ5yCgCjcOmdc-7" value="graphics_lib" style="text;html=1;align=center;verticalAlign=middle;resizable=0;points=[];autosize=1;strokeColor=none;fillColor=none;" parent="WIyWlLk6GJQsqaUBKTNV-1" vertex="1">
          <mxGeometry x="90" y="-20" width="80" height="20" as="geometry" />
        </mxCell>
        <mxCell id="cgiyTUMG2ke8YsK0RPjM-13" style="edgeStyle=orthogonalEdgeStyle;rounded=0;orthogonalLoop=1;jettySize=auto;html=1;entryX=1;entryY=0.25;entryDx=0;entryDy=0;dashed=1;endArrow=open;endFill=0;" edge="1" parent="WIyWlLk6GJQsqaUBKTNV-1" source="w26-jd_fZ5yCgCjcOmdc-8" target="w26-jd_fZ5yCgCjcOmdc-0">
          <mxGeometry relative="1" as="geometry" />
        </mxCell>
        <mxCell id="w26-jd_fZ5yCgCjcOmdc-8" value="&lt;p style=&quot;margin: 0px ; margin-top: 4px ; text-align: center&quot;&gt;&lt;i&gt;&amp;lt;&amp;lt;Interface&amp;gt;&amp;gt;&lt;/i&gt;&lt;br&gt;&lt;b&gt;CanvasDrawableInterface&lt;/b&gt;&lt;/p&gt;&lt;hr size=&quot;1&quot;&gt;&lt;p style=&quot;margin: 0px ; margin-left: 4px&quot;&gt;+ draw(&lt;span style=&quot;text-align: center&quot;&gt;CanvasInterface&amp;nbsp;&lt;/span&gt;canvas)&lt;/p&gt;" style="verticalAlign=top;align=left;overflow=fill;fontSize=12;fontFamily=Helvetica;html=1;fillColor=none;" parent="WIyWlLk6GJQsqaUBKTNV-1" vertex="1">
          <mxGeometry x="800" y="20" width="190" height="70" as="geometry" />
        </mxCell>
        <mxCell id="w26-jd_fZ5yCgCjcOmdc-11" style="edgeStyle=orthogonalEdgeStyle;rounded=0;orthogonalLoop=1;jettySize=auto;html=1;entryX=0.25;entryY=1;entryDx=0;entryDy=0;dashed=1;endArrow=block;endFill=0;" parent="WIyWlLk6GJQsqaUBKTNV-1" source="w26-jd_fZ5yCgCjcOmdc-9" target="w26-jd_fZ5yCgCjcOmdc-8" edge="1">
          <mxGeometry relative="1" as="geometry" />
        </mxCell>
        <mxCell id="w26-jd_fZ5yCgCjcOmdc-9" value="&lt;p style=&quot;margin: 0px ; margin-top: 4px ; text-align: center&quot;&gt;&lt;b&gt;Triangle&lt;/b&gt;&lt;/p&gt;&lt;hr size=&quot;1&quot;&gt;&lt;p style=&quot;margin: 0px ; margin-left: 4px&quot;&gt;+ draw(&lt;span style=&quot;text-align: center&quot;&gt;CanvasInterface&amp;nbsp;&lt;/span&gt;canvas)&lt;/p&gt;" style="verticalAlign=top;align=left;overflow=fill;fontSize=12;fontFamily=Helvetica;html=1;fillColor=none;" parent="WIyWlLk6GJQsqaUBKTNV-1" vertex="1">
          <mxGeometry x="660" y="160" width="200" height="60" as="geometry" />
        </mxCell>
        <mxCell id="w26-jd_fZ5yCgCjcOmdc-12" style="edgeStyle=orthogonalEdgeStyle;rounded=0;orthogonalLoop=1;jettySize=auto;html=1;entryX=0.75;entryY=1;entryDx=0;entryDy=0;dashed=1;endArrow=block;endFill=0;" parent="WIyWlLk6GJQsqaUBKTNV-1" source="w26-jd_fZ5yCgCjcOmdc-10" target="w26-jd_fZ5yCgCjcOmdc-8" edge="1">
          <mxGeometry relative="1" as="geometry" />
        </mxCell>
        <mxCell id="w26-jd_fZ5yCgCjcOmdc-10" value="&lt;p style=&quot;margin: 0px ; margin-top: 4px ; text-align: center&quot;&gt;&lt;b&gt;Rectangle&lt;/b&gt;&lt;/p&gt;&lt;hr size=&quot;1&quot;&gt;&lt;p style=&quot;margin: 0px ; margin-left: 4px&quot;&gt;+ draw(&lt;span style=&quot;text-align: center&quot;&gt;CanvasInterface&amp;nbsp;&lt;/span&gt;canvas)&lt;/p&gt;" style="verticalAlign=top;align=left;overflow=fill;fontSize=12;fontFamily=Helvetica;html=1;fillColor=none;" parent="WIyWlLk6GJQsqaUBKTNV-1" vertex="1">
          <mxGeometry x="920" y="160" width="180" height="60" as="geometry" />
        </mxCell>
        <mxCell id="w26-jd_fZ5yCgCjcOmdc-14" style="edgeStyle=orthogonalEdgeStyle;rounded=0;orthogonalLoop=1;jettySize=auto;html=1;endArrow=diamondThin;endFill=0;exitX=1;exitY=0.5;exitDx=0;exitDy=0;" parent="WIyWlLk6GJQsqaUBKTNV-1" source="w26-jd_fZ5yCgCjcOmdc-0" target="w26-jd_fZ5yCgCjcOmdc-13" edge="1">
          <mxGeometry relative="1" as="geometry">
            <Array as="points">
              <mxPoint x="560" y="115" />
              <mxPoint x="560" y="355" />
            </Array>
          </mxGeometry>
        </mxCell>
        <mxCell id="w26-jd_fZ5yCgCjcOmdc-15" style="edgeStyle=orthogonalEdgeStyle;rounded=0;orthogonalLoop=1;jettySize=auto;html=1;entryX=1;entryY=0.5;entryDx=0;entryDy=0;endArrow=openThin;endFill=0;dashed=1;" parent="WIyWlLk6GJQsqaUBKTNV-1" source="w26-jd_fZ5yCgCjcOmdc-13" target="w26-jd_fZ5yCgCjcOmdc-8" edge="1">
          <mxGeometry relative="1" as="geometry">
            <Array as="points">
              <mxPoint x="1140" y="355" />
              <mxPoint x="1140" y="55" />
            </Array>
          </mxGeometry>
        </mxCell>
        <mxCell id="w26-jd_fZ5yCgCjcOmdc-13" value="&lt;p style=&quot;margin: 0px ; margin-top: 4px ; text-align: center&quot;&gt;&lt;b&gt;CanvasPainter&lt;/b&gt;&lt;/p&gt;&lt;p style=&quot;margin: 0px ; margin-top: 4px ; text-align: center&quot;&gt;&lt;b&gt;&lt;br&gt;&lt;/b&gt;&lt;/p&gt;&lt;hr size=&quot;1&quot;&gt;&lt;p style=&quot;margin: 0px ; margin-left: 4px&quot;&gt;+ draw(CanvasDrawableInterface canvasDrawable&lt;span&gt;): Type&lt;/span&gt;&lt;/p&gt;" style="verticalAlign=top;align=left;overflow=fill;fontSize=12;fontFamily=Helvetica;html=1;fillColor=none;" parent="WIyWlLk6GJQsqaUBKTNV-1" vertex="1">
          <mxGeometry x="727.5" y="320" width="335" height="70" as="geometry" />
        </mxCell>
        <mxCell id="w26-jd_fZ5yCgCjcOmdc-17" value="shape_drawing_lib" style="text;html=1;align=center;verticalAlign=middle;resizable=0;points=[];autosize=1;strokeColor=none;fillColor=none;" parent="WIyWlLk6GJQsqaUBKTNV-1" vertex="1">
          <mxGeometry x="660" y="-20" width="120" height="20" as="geometry" />
        </mxCell>
        <mxCell id="w26-jd_fZ5yCgCjcOmdc-18" value="Point" style="swimlane;fontStyle=0;childLayout=stackLayout;horizontal=1;startSize=26;fillColor=none;horizontalStack=0;resizeParent=1;resizeParentMax=0;resizeLast=0;collapsible=1;marginBottom=0;" parent="WIyWlLk6GJQsqaUBKTNV-1" vertex="1">
          <mxGeometry x="640" y="678" width="140" height="78" as="geometry" />
        </mxCell>
        <mxCell id="w26-jd_fZ5yCgCjcOmdc-19" value="+ x: int" style="text;strokeColor=none;fillColor=none;align=left;verticalAlign=top;spacingLeft=4;spacingRight=4;overflow=hidden;rotatable=0;points=[[0,0.5],[1,0.5]];portConstraint=eastwest;" parent="w26-jd_fZ5yCgCjcOmdc-18" vertex="1">
          <mxGeometry y="26" width="140" height="26" as="geometry" />
        </mxCell>
        <mxCell id="w26-jd_fZ5yCgCjcOmdc-20" value="+ y: int" style="text;strokeColor=none;fillColor=none;align=left;verticalAlign=top;spacingLeft=4;spacingRight=4;overflow=hidden;rotatable=0;points=[[0,0.5],[1,0.5]];portConstraint=eastwest;" parent="w26-jd_fZ5yCgCjcOmdc-18" vertex="1">
          <mxGeometry y="52" width="140" height="26" as="geometry" />
        </mxCell>
        <mxCell id="w26-jd_fZ5yCgCjcOmdc-35" style="edgeStyle=orthogonalEdgeStyle;rounded=0;orthogonalLoop=1;jettySize=auto;html=1;entryX=1;entryY=0.5;entryDx=0;entryDy=0;endArrow=openThin;endFill=0;dashed=1;" parent="WIyWlLk6GJQsqaUBKTNV-1" source="w26-jd_fZ5yCgCjcOmdc-34" target="w26-jd_fZ5yCgCjcOmdc-19" edge="1">
          <mxGeometry relative="1" as="geometry" />
        </mxCell>
        <mxCell id="w26-jd_fZ5yCgCjcOmdc-34" value="&lt;p style=&quot;margin: 0px ; margin-top: 4px ; text-align: center&quot;&gt;ModernGraphicsRenderer&lt;br&gt;&lt;/p&gt;&lt;hr size=&quot;1&quot;&gt;&lt;p style=&quot;margin: 0px ; margin-left: 4px&quot;&gt;+ field: Type&lt;/p&gt;&lt;hr size=&quot;1&quot;&gt;&lt;p style=&quot;margin: 0px ; margin-left: 4px&quot;&gt;+ b&lt;span style=&quot;text-align: center&quot;&gt;eginDraw&lt;/span&gt;()&lt;/p&gt;&lt;p style=&quot;margin: 0px ; margin-left: 4px&quot;&gt;+ drawLine(Point start, Point end)&lt;/p&gt;&lt;p style=&quot;margin: 0px ; margin-left: 4px&quot;&gt;+ endDraw()&lt;/p&gt;" style="verticalAlign=top;align=left;overflow=fill;fontSize=12;fontFamily=Helvetica;html=1;fillColor=none;" parent="WIyWlLk6GJQsqaUBKTNV-1" vertex="1">
          <mxGeometry x="857" y="664" width="193" height="106" as="geometry" />
        </mxCell>
        <mxCell id="w26-jd_fZ5yCgCjcOmdc-37" value="modern_grapics_lib" style="text;html=1;strokeColor=none;fillColor=none;align=center;verticalAlign=middle;whiteSpace=wrap;rounded=0;" parent="WIyWlLk6GJQsqaUBKTNV-1" vertex="1">
          <mxGeometry x="640" y="590" width="120" height="30" as="geometry" />
        </mxCell>
        <mxCell id="w26-jd_fZ5yCgCjcOmdc-51" style="edgeStyle=orthogonalEdgeStyle;rounded=0;orthogonalLoop=1;jettySize=auto;html=1;endArrow=open;endFill=0;dashed=1;" parent="WIyWlLk6GJQsqaUBKTNV-1" source="w26-jd_fZ5yCgCjcOmdc-38" edge="1">
          <mxGeometry relative="1" as="geometry">
            <mxPoint x="1060" y="330" as="targetPoint" />
            <Array as="points">
              <mxPoint x="1190" y="25" />
              <mxPoint x="1190" y="330" />
              <mxPoint x="1060" y="330" />
            </Array>
          </mxGeometry>
        </mxCell>
        <mxCell id="w26-jd_fZ5yCgCjcOmdc-38" value="PaintPicture" style="html=1;fillColor=none;" parent="WIyWlLk6GJQsqaUBKTNV-1" vertex="1">
          <mxGeometry x="1440" width="110" height="50" as="geometry" />
        </mxCell>
        <mxCell id="w26-jd_fZ5yCgCjcOmdc-47" style="edgeStyle=orthogonalEdgeStyle;rounded=0;orthogonalLoop=1;jettySize=auto;html=1;entryX=0.727;entryY=0.76;entryDx=0;entryDy=0;entryPerimeter=0;endArrow=openThin;endFill=0;dashed=1;" parent="WIyWlLk6GJQsqaUBKTNV-1" source="w26-jd_fZ5yCgCjcOmdc-39" edge="1">
          <mxGeometry relative="1" as="geometry">
            <mxPoint x="1059.8200000000002" y="380" as="targetPoint" />
            <Array as="points">
              <mxPoint x="1280" y="115" />
              <mxPoint x="1280" y="380" />
            </Array>
          </mxGeometry>
        </mxCell>
        <mxCell id="w26-jd_fZ5yCgCjcOmdc-48" style="edgeStyle=orthogonalEdgeStyle;rounded=0;orthogonalLoop=1;jettySize=auto;html=1;endArrow=openThin;endFill=0;dashed=1;" parent="WIyWlLk6GJQsqaUBKTNV-1" source="w26-jd_fZ5yCgCjcOmdc-39" target="w26-jd_fZ5yCgCjcOmdc-2" edge="1">
          <mxGeometry relative="1" as="geometry">
            <Array as="points">
              <mxPoint x="1340" y="100" />
              <mxPoint x="1340" y="-110" />
              <mxPoint y="-110" />
              <mxPoint y="299" />
            </Array>
          </mxGeometry>
        </mxCell>
        <mxCell id="w26-jd_fZ5yCgCjcOmdc-39" value="PaintPictureOnCanvas" style="html=1;fillColor=none;" parent="WIyWlLk6GJQsqaUBKTNV-1" vertex="1">
          <mxGeometry x="1440" y="90" width="150" height="50" as="geometry" />
        </mxCell>
        <mxCell id="w26-jd_fZ5yCgCjcOmdc-50" style="edgeStyle=orthogonalEdgeStyle;rounded=0;orthogonalLoop=1;jettySize=auto;html=1;entryX=0.398;entryY=-0.009;entryDx=0;entryDy=0;entryPerimeter=0;endArrow=open;endFill=0;dashed=1;" parent="WIyWlLk6GJQsqaUBKTNV-1" source="w26-jd_fZ5yCgCjcOmdc-40" target="w26-jd_fZ5yCgCjcOmdc-42" edge="1">
          <mxGeometry relative="1" as="geometry" />
        </mxCell>
        <mxCell id="cgiyTUMG2ke8YsK0RPjM-0" style="edgeStyle=orthogonalEdgeStyle;rounded=0;orthogonalLoop=1;jettySize=auto;html=1;entryX=0.999;entryY=0.708;entryDx=0;entryDy=0;dashed=1;entryPerimeter=0;endArrow=open;endFill=0;" edge="1" parent="WIyWlLk6GJQsqaUBKTNV-1" source="w26-jd_fZ5yCgCjcOmdc-40" target="w26-jd_fZ5yCgCjcOmdc-13">
          <mxGeometry relative="1" as="geometry">
            <Array as="points">
              <mxPoint x="1229" y="215" />
              <mxPoint x="1229" y="370" />
              <mxPoint x="1062" y="370" />
            </Array>
          </mxGeometry>
        </mxCell>
        <mxCell id="w26-jd_fZ5yCgCjcOmdc-40" value="PaintPictureOnModernGraphicsRenderer" style="html=1;fillColor=none;" parent="WIyWlLk6GJQsqaUBKTNV-1" vertex="1">
          <mxGeometry x="1395" y="190" width="240" height="50" as="geometry" />
        </mxCell>
        <mxCell id="w26-jd_fZ5yCgCjcOmdc-42" value="PaintPictureOnModernAdapter" style="swimlane;fontStyle=1;align=center;verticalAlign=top;childLayout=stackLayout;horizontal=1;startSize=26;horizontalStack=0;resizeParent=1;resizeParentMax=0;resizeLast=0;collapsible=1;marginBottom=0;fillColor=none;" parent="WIyWlLk6GJQsqaUBKTNV-1" vertex="1">
          <mxGeometry x="1440" y="380" width="190" height="80" as="geometry" />
        </mxCell>
        <mxCell id="w26-jd_fZ5yCgCjcOmdc-45" value="+ MoveTo(int x, inx y);&#xa;+ LineTo(int x, int y);" style="text;strokeColor=none;fillColor=none;align=left;verticalAlign=top;spacingLeft=4;spacingRight=4;overflow=hidden;rotatable=0;points=[[0,0.5],[1,0.5]];portConstraint=eastwest;" parent="w26-jd_fZ5yCgCjcOmdc-42" vertex="1">
          <mxGeometry y="26" width="190" height="54" as="geometry" />
        </mxCell>
        <mxCell id="w26-jd_fZ5yCgCjcOmdc-49" style="edgeStyle=orthogonalEdgeStyle;rounded=0;orthogonalLoop=1;jettySize=auto;html=1;endArrow=diamondThin;endFill=0;exitX=1;exitY=0.5;exitDx=0;exitDy=0;" parent="WIyWlLk6GJQsqaUBKTNV-1" source="w26-jd_fZ5yCgCjcOmdc-34" edge="1">
          <mxGeometry relative="1" as="geometry">
            <Array as="points">
              <mxPoint x="1340" y="717" />
              <mxPoint x="1340" y="450" />
              <mxPoint x="1440" y="450" />
            </Array>
            <mxPoint x="1440" y="450" as="targetPoint" />
          </mxGeometry>
        </mxCell>
        <mxCell id="7zCZkR6j8R67EakEaH-I-1" style="edgeStyle=orthogonalEdgeStyle;rounded=0;orthogonalLoop=1;jettySize=auto;html=1;entryX=1;entryY=0.75;entryDx=0;entryDy=0;dashed=1;endArrow=block;endFill=0;" parent="WIyWlLk6GJQsqaUBKTNV-1" target="w26-jd_fZ5yCgCjcOmdc-0" edge="1">
          <mxGeometry relative="1" as="geometry">
            <Array as="points">
              <mxPoint x="460" y="419" />
              <mxPoint x="460" y="138" />
            </Array>
            <mxPoint x="1440" y="419" as="sourcePoint" />
          </mxGeometry>
        </mxCell>
        <mxCell id="31Hl7Hs_Voh5vubFQ8HL-0" value="&lt;p style=&quot;margin: 0px ; margin-top: 4px ; text-align: center&quot;&gt;&lt;i&gt;&amp;lt;&amp;lt;Interface&amp;gt;&amp;gt;&lt;/i&gt;&lt;br&gt;&lt;b&gt;CanvasInterface&lt;/b&gt;&lt;/p&gt;&lt;hr size=&quot;1&quot;&gt;&lt;p style=&quot;margin: 0px ; margin-left: 4px&quot;&gt;+ MoveTo(int x, inx y);&lt;br&gt;+ LineTo(int x, int y);&lt;/p&gt;" style="verticalAlign=top;align=left;overflow=fill;fontSize=12;fontFamily=Helvetica;html=1;" parent="WIyWlLk6GJQsqaUBKTNV-1" vertex="1">
          <mxGeometry x="150" y="1360" width="190" height="90" as="geometry" />
        </mxCell>
        <mxCell id="31Hl7Hs_Voh5vubFQ8HL-1" style="edgeStyle=orthogonalEdgeStyle;rounded=0;orthogonalLoop=1;jettySize=auto;html=1;entryX=0.467;entryY=1.016;entryDx=0;entryDy=0;entryPerimeter=0;dashed=1;endArrow=block;endFill=0;" parent="WIyWlLk6GJQsqaUBKTNV-1" source="31Hl7Hs_Voh5vubFQ8HL-2" target="31Hl7Hs_Voh5vubFQ8HL-0" edge="1">
          <mxGeometry relative="1" as="geometry" />
        </mxCell>
        <mxCell id="31Hl7Hs_Voh5vubFQ8HL-2" value="Canvas" style="swimlane;fontStyle=1;align=center;verticalAlign=top;childLayout=stackLayout;horizontal=1;startSize=26;horizontalStack=0;resizeParent=1;resizeParentMax=0;resizeLast=0;collapsible=1;marginBottom=0;" parent="WIyWlLk6GJQsqaUBKTNV-1" vertex="1">
          <mxGeometry x="160" y="1550" width="160" height="100" as="geometry" />
        </mxCell>
        <mxCell id="31Hl7Hs_Voh5vubFQ8HL-3" value="+ field: type" style="text;strokeColor=none;fillColor=none;align=left;verticalAlign=top;spacingLeft=4;spacingRight=4;overflow=hidden;rotatable=0;points=[[0,0.5],[1,0.5]];portConstraint=eastwest;" parent="31Hl7Hs_Voh5vubFQ8HL-2" vertex="1">
          <mxGeometry y="26" width="160" height="26" as="geometry" />
        </mxCell>
        <mxCell id="31Hl7Hs_Voh5vubFQ8HL-4" value="" style="line;strokeWidth=1;fillColor=none;align=left;verticalAlign=middle;spacingTop=-1;spacingLeft=3;spacingRight=3;rotatable=0;labelPosition=right;points=[];portConstraint=eastwest;" parent="31Hl7Hs_Voh5vubFQ8HL-2" vertex="1">
          <mxGeometry y="52" width="160" height="8" as="geometry" />
        </mxCell>
        <mxCell id="31Hl7Hs_Voh5vubFQ8HL-5" value="+ MoveTo(int x, inx y);&#xa;+ LineTo(int x, int y);" style="text;strokeColor=none;fillColor=none;align=left;verticalAlign=top;spacingLeft=4;spacingRight=4;overflow=hidden;rotatable=0;points=[[0,0.5],[1,0.5]];portConstraint=eastwest;" parent="31Hl7Hs_Voh5vubFQ8HL-2" vertex="1">
          <mxGeometry y="60" width="160" height="40" as="geometry" />
        </mxCell>
        <mxCell id="31Hl7Hs_Voh5vubFQ8HL-6" value="graphics_lib" style="text;html=1;align=center;verticalAlign=middle;resizable=0;points=[];autosize=1;strokeColor=none;fillColor=none;" parent="WIyWlLk6GJQsqaUBKTNV-1" vertex="1">
          <mxGeometry x="90" y="1270" width="80" height="20" as="geometry" />
        </mxCell>
        <mxCell id="cgiyTUMG2ke8YsK0RPjM-14" style="edgeStyle=orthogonalEdgeStyle;rounded=0;orthogonalLoop=1;jettySize=auto;html=1;entryX=1;entryY=0.25;entryDx=0;entryDy=0;dashed=1;endArrow=open;endFill=0;" edge="1" parent="WIyWlLk6GJQsqaUBKTNV-1" source="31Hl7Hs_Voh5vubFQ8HL-7" target="31Hl7Hs_Voh5vubFQ8HL-0">
          <mxGeometry relative="1" as="geometry" />
        </mxCell>
        <mxCell id="31Hl7Hs_Voh5vubFQ8HL-7" value="&lt;p style=&quot;margin: 0px ; margin-top: 4px ; text-align: center&quot;&gt;&lt;i&gt;&amp;lt;&amp;lt;Interface&amp;gt;&amp;gt;&lt;/i&gt;&lt;br&gt;&lt;b&gt;CanvasDrawableInterface&lt;/b&gt;&lt;/p&gt;&lt;hr size=&quot;1&quot;&gt;&lt;p style=&quot;margin: 0px ; margin-left: 4px&quot;&gt;+ draw(&lt;span style=&quot;text-align: center&quot;&gt;CanvasInterface&amp;nbsp;&lt;/span&gt;canvas)&lt;/p&gt;" style="verticalAlign=top;align=left;overflow=fill;fontSize=12;fontFamily=Helvetica;html=1;fillColor=none;" parent="WIyWlLk6GJQsqaUBKTNV-1" vertex="1">
          <mxGeometry x="800" y="1310" width="190" height="70" as="geometry" />
        </mxCell>
        <mxCell id="31Hl7Hs_Voh5vubFQ8HL-8" style="edgeStyle=orthogonalEdgeStyle;rounded=0;orthogonalLoop=1;jettySize=auto;html=1;entryX=0.25;entryY=1;entryDx=0;entryDy=0;dashed=1;endArrow=block;endFill=0;" parent="WIyWlLk6GJQsqaUBKTNV-1" source="31Hl7Hs_Voh5vubFQ8HL-9" target="31Hl7Hs_Voh5vubFQ8HL-7" edge="1">
          <mxGeometry relative="1" as="geometry" />
        </mxCell>
        <mxCell id="31Hl7Hs_Voh5vubFQ8HL-9" value="&lt;p style=&quot;margin: 0px ; margin-top: 4px ; text-align: center&quot;&gt;&lt;b&gt;Triangle&lt;/b&gt;&lt;/p&gt;&lt;hr size=&quot;1&quot;&gt;&lt;p style=&quot;margin: 0px ; margin-left: 4px&quot;&gt;+ draw(&lt;span style=&quot;text-align: center&quot;&gt;CanvasInterface&amp;nbsp;&lt;/span&gt;canvas)&lt;/p&gt;" style="verticalAlign=top;align=left;overflow=fill;fontSize=12;fontFamily=Helvetica;html=1;fillColor=none;" parent="WIyWlLk6GJQsqaUBKTNV-1" vertex="1">
          <mxGeometry x="660" y="1450" width="200" height="60" as="geometry" />
        </mxCell>
        <mxCell id="31Hl7Hs_Voh5vubFQ8HL-10" style="edgeStyle=orthogonalEdgeStyle;rounded=0;orthogonalLoop=1;jettySize=auto;html=1;entryX=0.75;entryY=1;entryDx=0;entryDy=0;dashed=1;endArrow=block;endFill=0;" parent="WIyWlLk6GJQsqaUBKTNV-1" source="31Hl7Hs_Voh5vubFQ8HL-11" target="31Hl7Hs_Voh5vubFQ8HL-7" edge="1">
          <mxGeometry relative="1" as="geometry" />
        </mxCell>
        <mxCell id="31Hl7Hs_Voh5vubFQ8HL-11" value="&lt;p style=&quot;margin: 0px ; margin-top: 4px ; text-align: center&quot;&gt;&lt;b&gt;Rectangle&lt;/b&gt;&lt;/p&gt;&lt;hr size=&quot;1&quot;&gt;&lt;p style=&quot;margin: 0px ; margin-left: 4px&quot;&gt;+ draw(&lt;span style=&quot;text-align: center&quot;&gt;CanvasInterface&amp;nbsp;&lt;/span&gt;canvas)&lt;/p&gt;" style="verticalAlign=top;align=left;overflow=fill;fontSize=12;fontFamily=Helvetica;html=1;fillColor=none;" parent="WIyWlLk6GJQsqaUBKTNV-1" vertex="1">
          <mxGeometry x="920" y="1450" width="180" height="60" as="geometry" />
        </mxCell>
        <mxCell id="31Hl7Hs_Voh5vubFQ8HL-12" style="edgeStyle=orthogonalEdgeStyle;rounded=0;orthogonalLoop=1;jettySize=auto;html=1;endArrow=diamondThin;endFill=0;exitX=1;exitY=0.5;exitDx=0;exitDy=0;" parent="WIyWlLk6GJQsqaUBKTNV-1" source="31Hl7Hs_Voh5vubFQ8HL-0" target="31Hl7Hs_Voh5vubFQ8HL-14" edge="1">
          <mxGeometry relative="1" as="geometry">
            <Array as="points">
              <mxPoint x="560" y="1405" />
              <mxPoint x="560" y="1645" />
            </Array>
          </mxGeometry>
        </mxCell>
        <mxCell id="31Hl7Hs_Voh5vubFQ8HL-13" style="edgeStyle=orthogonalEdgeStyle;rounded=0;orthogonalLoop=1;jettySize=auto;html=1;entryX=1;entryY=0.5;entryDx=0;entryDy=0;endArrow=openThin;endFill=0;dashed=1;" parent="WIyWlLk6GJQsqaUBKTNV-1" source="31Hl7Hs_Voh5vubFQ8HL-14" target="31Hl7Hs_Voh5vubFQ8HL-7" edge="1">
          <mxGeometry relative="1" as="geometry">
            <Array as="points">
              <mxPoint x="1140" y="1645" />
              <mxPoint x="1140" y="1345" />
            </Array>
          </mxGeometry>
        </mxCell>
        <mxCell id="31Hl7Hs_Voh5vubFQ8HL-14" value="&lt;p style=&quot;margin: 0px ; margin-top: 4px ; text-align: center&quot;&gt;&lt;b&gt;CanvasPainter&lt;/b&gt;&lt;/p&gt;&lt;p style=&quot;margin: 0px ; margin-top: 4px ; text-align: center&quot;&gt;&lt;b&gt;&lt;br&gt;&lt;/b&gt;&lt;/p&gt;&lt;p style=&quot;margin: 0px ; margin-top: 4px ; text-align: center&quot;&gt;&lt;b&gt;&lt;br&gt;&lt;/b&gt;&lt;/p&gt;&lt;hr size=&quot;1&quot;&gt;&lt;p style=&quot;margin: 0px ; margin-left: 4px&quot;&gt;+ draw(CanvasDrawableInterface canvasDrawable&lt;span&gt;): Type&lt;/span&gt;&lt;/p&gt;" style="verticalAlign=top;align=left;overflow=fill;fontSize=12;fontFamily=Helvetica;html=1;fillColor=none;" parent="WIyWlLk6GJQsqaUBKTNV-1" vertex="1">
          <mxGeometry x="727.5" y="1590" width="335" height="90" as="geometry" />
        </mxCell>
        <mxCell id="31Hl7Hs_Voh5vubFQ8HL-15" value="shape_drawing_lib" style="text;html=1;align=center;verticalAlign=middle;resizable=0;points=[];autosize=1;strokeColor=none;fillColor=none;" parent="WIyWlLk6GJQsqaUBKTNV-1" vertex="1">
          <mxGeometry x="660" y="1270" width="120" height="20" as="geometry" />
        </mxCell>
        <mxCell id="31Hl7Hs_Voh5vubFQ8HL-16" value="Point" style="swimlane;fontStyle=0;childLayout=stackLayout;horizontal=1;startSize=26;fillColor=none;horizontalStack=0;resizeParent=1;resizeParentMax=0;resizeLast=0;collapsible=1;marginBottom=0;" parent="WIyWlLk6GJQsqaUBKTNV-1" vertex="1">
          <mxGeometry x="640" y="1968" width="140" height="78" as="geometry" />
        </mxCell>
        <mxCell id="31Hl7Hs_Voh5vubFQ8HL-17" value="+ x: int" style="text;strokeColor=none;fillColor=none;align=left;verticalAlign=top;spacingLeft=4;spacingRight=4;overflow=hidden;rotatable=0;points=[[0,0.5],[1,0.5]];portConstraint=eastwest;" parent="31Hl7Hs_Voh5vubFQ8HL-16" vertex="1">
          <mxGeometry y="26" width="140" height="26" as="geometry" />
        </mxCell>
        <mxCell id="31Hl7Hs_Voh5vubFQ8HL-18" value="+ y: int" style="text;strokeColor=none;fillColor=none;align=left;verticalAlign=top;spacingLeft=4;spacingRight=4;overflow=hidden;rotatable=0;points=[[0,0.5],[1,0.5]];portConstraint=eastwest;" parent="31Hl7Hs_Voh5vubFQ8HL-16" vertex="1">
          <mxGeometry y="52" width="140" height="26" as="geometry" />
        </mxCell>
        <mxCell id="31Hl7Hs_Voh5vubFQ8HL-19" style="edgeStyle=orthogonalEdgeStyle;rounded=0;orthogonalLoop=1;jettySize=auto;html=1;entryX=1;entryY=0.5;entryDx=0;entryDy=0;endArrow=openThin;endFill=0;dashed=1;" parent="WIyWlLk6GJQsqaUBKTNV-1" source="31Hl7Hs_Voh5vubFQ8HL-20" target="31Hl7Hs_Voh5vubFQ8HL-17" edge="1">
          <mxGeometry relative="1" as="geometry" />
        </mxCell>
        <mxCell id="31Hl7Hs_Voh5vubFQ8HL-20" value="&lt;p style=&quot;margin: 0px ; margin-top: 4px ; text-align: center&quot;&gt;CModernGraphicsRenderer&lt;br&gt;&lt;/p&gt;&lt;hr size=&quot;1&quot;&gt;&lt;p style=&quot;margin: 0px ; margin-left: 4px&quot;&gt;+ field: Type&lt;/p&gt;&lt;hr size=&quot;1&quot;&gt;&lt;p style=&quot;margin: 0px ; margin-left: 4px&quot;&gt;+ b&lt;span style=&quot;text-align: center&quot;&gt;eginDraw&lt;/span&gt;()&lt;/p&gt;&lt;p style=&quot;margin: 0px ; margin-left: 4px&quot;&gt;+ drawLine(Point start, Point end)&lt;/p&gt;&lt;p style=&quot;margin: 0px ; margin-left: 4px&quot;&gt;+ endDraw()&lt;/p&gt;" style="verticalAlign=top;align=left;overflow=fill;fontSize=12;fontFamily=Helvetica;html=1;fillColor=none;" parent="WIyWlLk6GJQsqaUBKTNV-1" vertex="1">
          <mxGeometry x="857" y="1954" width="193" height="106" as="geometry" />
        </mxCell>
        <mxCell id="31Hl7Hs_Voh5vubFQ8HL-21" value="modern_grapics_lib" style="text;html=1;strokeColor=none;fillColor=none;align=center;verticalAlign=middle;whiteSpace=wrap;rounded=0;" parent="WIyWlLk6GJQsqaUBKTNV-1" vertex="1">
          <mxGeometry x="640" y="1880" width="120" height="30" as="geometry" />
        </mxCell>
        <mxCell id="31Hl7Hs_Voh5vubFQ8HL-22" style="edgeStyle=orthogonalEdgeStyle;rounded=0;orthogonalLoop=1;jettySize=auto;html=1;endArrow=open;endFill=0;dashed=1;" parent="WIyWlLk6GJQsqaUBKTNV-1" source="31Hl7Hs_Voh5vubFQ8HL-23" edge="1">
          <mxGeometry relative="1" as="geometry">
            <mxPoint x="1060" y="1620" as="targetPoint" />
            <Array as="points">
              <mxPoint x="1190" y="1315" />
              <mxPoint x="1190" y="1620" />
              <mxPoint x="1060" y="1620" />
            </Array>
          </mxGeometry>
        </mxCell>
        <mxCell id="31Hl7Hs_Voh5vubFQ8HL-23" value="PaintPicture" style="html=1;fillColor=none;" parent="WIyWlLk6GJQsqaUBKTNV-1" vertex="1">
          <mxGeometry x="1440" y="1290" width="110" height="50" as="geometry" />
        </mxCell>
        <mxCell id="31Hl7Hs_Voh5vubFQ8HL-24" style="edgeStyle=orthogonalEdgeStyle;rounded=0;orthogonalLoop=1;jettySize=auto;html=1;entryX=0.727;entryY=0.76;entryDx=0;entryDy=0;entryPerimeter=0;endArrow=openThin;endFill=0;dashed=1;" parent="WIyWlLk6GJQsqaUBKTNV-1" source="31Hl7Hs_Voh5vubFQ8HL-26" edge="1">
          <mxGeometry relative="1" as="geometry">
            <mxPoint x="1059.8199999999997" y="1670" as="targetPoint" />
            <Array as="points">
              <mxPoint x="1280" y="1405" />
              <mxPoint x="1280" y="1670" />
            </Array>
          </mxGeometry>
        </mxCell>
        <mxCell id="31Hl7Hs_Voh5vubFQ8HL-25" style="edgeStyle=orthogonalEdgeStyle;rounded=0;orthogonalLoop=1;jettySize=auto;html=1;endArrow=openThin;endFill=0;dashed=1;" parent="WIyWlLk6GJQsqaUBKTNV-1" source="31Hl7Hs_Voh5vubFQ8HL-26" target="31Hl7Hs_Voh5vubFQ8HL-3" edge="1">
          <mxGeometry relative="1" as="geometry">
            <Array as="points">
              <mxPoint x="1340" y="1390" />
              <mxPoint x="1340" y="1180" />
              <mxPoint y="1180" />
              <mxPoint y="1589" />
            </Array>
          </mxGeometry>
        </mxCell>
        <mxCell id="31Hl7Hs_Voh5vubFQ8HL-26" value="PaintPictureOnCanvas" style="html=1;fillColor=none;" parent="WIyWlLk6GJQsqaUBKTNV-1" vertex="1">
          <mxGeometry x="1440" y="1380" width="150" height="50" as="geometry" />
        </mxCell>
        <mxCell id="cgiyTUMG2ke8YsK0RPjM-12" style="edgeStyle=orthogonalEdgeStyle;rounded=0;orthogonalLoop=1;jettySize=auto;html=1;dashed=1;endArrow=open;endFill=0;entryX=1.002;entryY=0.108;entryDx=0;entryDy=0;entryPerimeter=0;" edge="1" parent="WIyWlLk6GJQsqaUBKTNV-1" source="31Hl7Hs_Voh5vubFQ8HL-28" target="31Hl7Hs_Voh5vubFQ8HL-14">
          <mxGeometry relative="1" as="geometry">
            <mxPoint x="1070" y="1600" as="targetPoint" />
            <Array as="points">
              <mxPoint x="1251" y="1505" />
              <mxPoint x="1251" y="1600" />
            </Array>
          </mxGeometry>
        </mxCell>
        <mxCell id="31Hl7Hs_Voh5vubFQ8HL-28" value="PaintPictureOnModern" style="html=1;fillColor=none;" parent="WIyWlLk6GJQsqaUBKTNV-1" vertex="1">
          <mxGeometry x="1440" y="1480" width="150" height="50" as="geometry" />
        </mxCell>
        <mxCell id="31Hl7Hs_Voh5vubFQ8HL-39" style="edgeStyle=orthogonalEdgeStyle;rounded=0;orthogonalLoop=1;jettySize=auto;html=1;endArrow=open;endFill=0;dashed=1;" parent="WIyWlLk6GJQsqaUBKTNV-1" source="31Hl7Hs_Voh5vubFQ8HL-28" target="31Hl7Hs_Voh5vubFQ8HL-35" edge="1">
          <mxGeometry relative="1" as="geometry" />
        </mxCell>
        <mxCell id="31Hl7Hs_Voh5vubFQ8HL-40" style="edgeStyle=orthogonalEdgeStyle;rounded=0;orthogonalLoop=1;jettySize=auto;html=1;endArrow=block;endFill=0;" parent="WIyWlLk6GJQsqaUBKTNV-1" source="31Hl7Hs_Voh5vubFQ8HL-35" target="31Hl7Hs_Voh5vubFQ8HL-20" edge="1">
          <mxGeometry relative="1" as="geometry">
            <Array as="points">
              <mxPoint x="1510" y="1850" />
              <mxPoint x="954" y="1850" />
            </Array>
          </mxGeometry>
        </mxCell>
        <mxCell id="31Hl7Hs_Voh5vubFQ8HL-35" value="PaintPictureOnModernClassAdapter" style="swimlane;fontStyle=1;align=center;verticalAlign=top;childLayout=stackLayout;horizontal=1;startSize=26;horizontalStack=0;resizeParent=1;resizeParentMax=0;resizeLast=0;collapsible=1;marginBottom=0;fillColor=none;" parent="WIyWlLk6GJQsqaUBKTNV-1" vertex="1">
          <mxGeometry x="1400" y="1640" width="220" height="52" as="geometry" />
        </mxCell>
        <mxCell id="31Hl7Hs_Voh5vubFQ8HL-38" value="+ method(type): type" style="text;strokeColor=none;fillColor=none;align=left;verticalAlign=top;spacingLeft=4;spacingRight=4;overflow=hidden;rotatable=0;points=[[0,0.5],[1,0.5]];portConstraint=eastwest;" parent="31Hl7Hs_Voh5vubFQ8HL-35" vertex="1">
          <mxGeometry y="26" width="220" height="26" as="geometry" />
        </mxCell>
        <mxCell id="31Hl7Hs_Voh5vubFQ8HL-41" style="edgeStyle=orthogonalEdgeStyle;rounded=0;orthogonalLoop=1;jettySize=auto;html=1;entryX=1;entryY=0.75;entryDx=0;entryDy=0;endArrow=block;endFill=0;dashed=1;" parent="WIyWlLk6GJQsqaUBKTNV-1" source="31Hl7Hs_Voh5vubFQ8HL-38" target="31Hl7Hs_Voh5vubFQ8HL-0" edge="1">
          <mxGeometry relative="1" as="geometry">
            <Array as="points">
              <mxPoint x="1320" y="1679" />
              <mxPoint x="1320" y="1780" />
              <mxPoint x="400" y="1780" />
              <mxPoint x="400" y="1428" />
            </Array>
          </mxGeometry>
        </mxCell>
        <mxCell id="cgiyTUMG2ke8YsK0RPjM-10" value="+ canvas: CanvasInterface" style="text;strokeColor=none;fillColor=none;align=left;verticalAlign=top;spacingLeft=4;spacingRight=4;overflow=hidden;rotatable=0;points=[[0,0.5],[1,0.5]];portConstraint=eastwest;" vertex="1" parent="WIyWlLk6GJQsqaUBKTNV-1">
          <mxGeometry x="727.5" y="334" width="212.5" height="26" as="geometry" />
        </mxCell>
        <mxCell id="cgiyTUMG2ke8YsK0RPjM-11" value="+ canvas: CanvasInterface" style="text;strokeColor=none;fillColor=none;align=left;verticalAlign=top;spacingLeft=4;spacingRight=4;overflow=hidden;rotatable=0;points=[[0,0.5],[1,0.5]];portConstraint=eastwest;" vertex="1" parent="WIyWlLk6GJQsqaUBKTNV-1">
          <mxGeometry x="727.5" y="1622" width="212.5" height="26" as="geometry" />
        </mxCell>
      </root>
    </mxGraphModel>
  </diagram>
</mxfile>
